<?xml version="1.0" encoding="utf-8"?>
<!-- Generator: Adobe Illustrator 21.0.0, SVG Export Plug-In . SVG Version: 6.00 Build 0)  -->
<svg version="1.1" id="Capa_1" xmlns="http://www.w3.org/2000/svg" xmlns:xlink="http://www.w3.org/1999/xlink" x="0px" y="0px"
	 viewBox="0 0 100 100" style="enable-background:new 0 0 100 100;" xml:space="preserve">
<style type="text/css">
	.st0{fill:#4C4C4C;}
	.st1{fill:#333333;}
	.st2{fill:#191919;}
	.st3{fill:#FF6600;}
	.st4{fill:#999999;}
	.st5{fill:#FFFFFF;}
	.st6{fill:url(#SVGID_1_);}
	.st7{fill:#B2B2B2;}
	.st8{fill:#666666;}
	.st9{fill:url(#SVGID_2_);}
	.st10{fill:url(#SVGID_3_);}
	.st11{fill:url(#SVGID_4_);}
	.st12{fill:#706F6F;}
	.st13{fill:#C8C8C8;}
	.st14{fill:#DADADA;}
	.st15{fill:#80D0CC;}
	.st16{fill:url(#SVGID_5_);}
	.st17{fill:url(#SVGID_6_);}
	.st18{fill:url(#SVGID_7_);}
	.st19{fill:#9B9B9A;}
	.st20{fill:#00A29A;}
	.st21{fill:none;}
	.st22{fill:#B20023;}
</style>
<g>
	<g>
		<g>
			<polygon class="st0" points="49.8,47.3 52,48.6 47.8,51 45.6,49.7 			"/>
			<polygon class="st1" points="47.8,51 45.6,49.7 45.6,50.6 47.8,51.9 			"/>
			<polygon class="st2" points="47.8,51 52,48.6 52,49.5 47.8,51.9 			"/>
			<path class="st3" d="M48.6,50.7l2.7-1.5c0.3-0.1,0.3,0.3,0.1,0.5l-2.7,1.5C48.4,51.5,48.3,50.9,48.6,50.7z"/>
			<path class="st4" d="M46.9,55.2c0,0.6-0.9,0.6-0.9,0v-4.4c0-0.6,0.9-0.6,0.9,0V55.2z"/>
			<path class="st5" d="M42.9,53.6l-11.1-7.2l0.1-0.8l12.4,6.6C45.3,53.1,43.8,54,42.9,53.6z"/>
			<path class="st5" d="M40.6,39.6c0.5-0.4,1.6,0.8,1.1,1.4l-10.5,4.8L30.4,45L40.6,39.6z"/>
			<path class="st0" d="M40.6,42.2c-2.5-5.4-6.6-9.6-10.5-11.1c-1.8-0.8-3.6-0.9-5.1-0.4c-0.9,0.3-1.9,0.8-2.6,1.4
				c-3.2,2.7-3.2,9.1-0.2,15.9c1.9,4.2,4.8,7.6,7.7,9.6c2.7,1.8,5.6,2.7,7.8,2C43,57.8,44.2,50.1,40.6,42.2z M35.1,56.6
				c-1.5,0.4-3.2,0.1-4.8-0.8c-2.7-1.4-5.1-4.2-6.8-7.8c-2.7-6-1.8-11.7,1.9-12.9c1.5-0.5,3.2-0.1,4.8,0.8c2.7,1.4,5.1,4.2,6.8,7.8
				C39.6,49.7,38.8,55.5,35.1,56.6z"/>
			<path class="st2" d="M39.3,43.1c-2.1-4.8-5.5-8.6-9-10.5c-2.2-1.2-4.5-1.6-6.4-1.1c-4.9,1.5-6.1,9.1-2.6,17.1
				c2.1,4.8,5.6,8.5,9,10.5c2.2,1.2,4.5,1.6,6.5,1C41.7,58.7,42.9,51,39.3,43.1z M35.1,56.6c-1.5,0.4-3.2,0.1-4.8-0.8
				c-2.7-1.4-5.1-4.2-6.8-7.8c-2.7-6-1.8-11.7,1.9-12.9c1.5-0.5,3.2-0.1,4.8,0.8c2.7,1.4,5.1,4.2,6.8,7.8
				C39.6,49.7,38.8,55.5,35.1,56.6z"/>
			<path class="st2" d="M23.2,31.2c0.1-0.1,0.4-0.1,0.8-0.3c5.1-1.5,12,3.8,15.7,11.7c0.8,1.5,1.2,3.1,1.5,4.5l0,0l0.3,0.1
				c-0.3-1.6-0.9-3.3-1.7-4.9c-3.8-8.2-11.1-13.6-16.2-12c-0.1,0.1-0.3,0.1-0.4,0.1L23.2,31.2z"/>
			
				<linearGradient id="SVGID_1_" gradientUnits="userSpaceOnUse" x1="-53.2089" y1="64.5195" x2="-62.852" y2="47.8173" gradientTransform="matrix(1 0 0 -1 88.2278 102)">
				<stop  offset="3.208560e-02" style="stop-color:#706F6F"/>
				<stop  offset="0.8877" style="stop-color:#FFFFFF"/>
			</linearGradient>
			<path class="st6" d="M37.8,43.5c-1.8-4.1-4.7-7.2-7.6-8.9c-1.9-1.1-3.8-1.4-5.4-0.9c-4.2,1.4-5.1,7.8-2.1,14.4
				c1.8,4,4.6,7.2,7.6,8.9c2,1,3.8,1.4,5.4,0.9C39.9,56.6,40.8,50.1,37.8,43.5z M35.1,56.6c-1.5,0.4-3.2,0.1-4.8-0.8
				c-2.7-1.4-5.1-4.2-6.8-7.8c-2.7-6-1.8-11.7,1.9-12.9c1.5-0.5,3.2-0.1,4.8,0.8c2.7,1.4,5.1,4.2,6.8,7.8
				C39.6,49.7,38.8,55.5,35.1,56.6z"/>
			<path class="st7" d="M30.1,56l0.4-7.8l-1.1,7.4l-0.1-0.1l1.1-7.4l-1.8,6.9l-0.2-0.1l1.8-7.1l-2.5,6.5l0,0l2.6-6.5l-3.2,5.7
				l-0.3-0.1l3.3-5.9l-3.9,4.9l-0.2-0.1l3.9-5.1l-4.5,4.2l-0.2-0.1L30,47l-5.2,3.1L24.6,50l5.2-3.3L24,48.9l-0.2-0.1l6-2.1l-6.3,1
				l-0.1-0.1l6.3-1h-6.8l-0.1-0.1h6.6l-6.7-1.2l0,0V45l6.9,1L22.3,44v-0.1v-0.2l7.1,2.1l-7.2-3.3v-0.1v-0.2l7.2,3.1l-7.2-4.2V41l0,0
				l7.1,4.2l-7.1-5.1v-0.1l7.1,4.9L22.3,39c0-0.1,0-0.1,0-0.1l6.8,5.7L22.5,38c0.1-0.1,0.1-0.1,0.1-0.1l6.4,6.5l-6.1-7.2
				c0-0.1,0.1-0.1,0.1-0.1l6.2,7.1l-5.7-7.6l0.1-0.1l5.7,7.6l-5.6-7.5v-0.2l5.4,7.9l-4.9-8.4l0.1-0.1l4.8,8.2l-4.3-8.5
				c0.1-0.1,0.1-0.1,0.1-0.1l4.4,8.5l-3.9-8.9c0.2,0,0.2,0,0.2,0l3.8,8.7l-3.3-8.9c0.2,0,0.2,0,0.2,0l3.3,8.9l-2.7-8.7
				c0.2,0,0.2,0,0.2,0l2.7,9L27.6,35c0.2,0,0.2,0,0.2,0l2.1,9l-1.5-8.9c0.2,0.1,0.2,0.1,0.2,0.1l1.5,8.9l-0.9-8.7
				c0.2,0,0.2,0.1,0.2,0.1l0.9,8.7l-0.3-8.4C30,35.9,30,36,30,36l0.3,8.6l0.4-8.1l0.1,0.1l-0.4,8.2l1.2-7.8l0.2,0.1L30.6,45l1.9-7.2
				l0.2,0.1l-2,7.4l2.6-6.6l0.1,0.1l-2.7,6.8l3.3-6l0.3-0.4l-3.3,6l4.1-5.1l0.1,0.1l-4,5.2l4.8-4.4l0.2,0.1l-4.8,4.4l5.4-3.3
				l0.2,0.1l-5.6,3.2l5.9-2.2l0.2,0.1l-6,2.4l6.3-1l0.2,0.1l-6.3,1h6.8l0.2,0.1h-6.6l6.9,1.1v0.1l-6.9-1.1l7.1,2.1v0.1l-7.1-2.1
				l7,3.2v0.1l-7.1-3.1l7.1,4v0.1l-6.9-4l6.8,4.9v0.1l-6.8-4.8l6.6,5.5c0,0.1,0,0.1,0,0.1l-6.4-5.5l6.1,6.1
				c-0.1,0.1-0.1,0.1-0.1,0.1l-6.2-6.1l5.8,6.8c0,0.1-0.2,0.1-0.2,0.1l-5.7-6.6l5.4,7.2v0.3l-5.4-7l4.9,7.5l-0.1,0.1l-5-7.4l4.5,7.8
				l-0.2,0.1l-4.5-7.8l4.1,7.9c0.2,0,0.2,0,0.2,0l-4.1-7.9l3.6,8.1c-0.1,0-0.1,0-0.1,0l-3.6-8.1l3,8.2c-0.1,0-0.1,0-0.1,0l-3.1-8.2
				l2.6,8.2c-0.2,0-0.2,0-0.2,0l-2.5-8.4l1.9,8.2c-0.1,0-0.1,0-0.1,0l-2-8.4l1.3,8.2c-0.1,0-0.1,0-0.1,0l-1.5-8.2l0.9,8.1
				c-0.2-0.1-0.2-0.1-0.2-0.1l-1-8.1l0.1,7.9c-0.1,0-0.1-0.1-0.1-0.1L30.3,48l-0.4,7.6C29.8,55.5,29.8,55.5,30.1,56z"/>
			<polygon class="st2" points="23.2,31.2 31.9,47.1 41.4,53.1 41.4,47.6 41.7,44.7 37.7,37.2 31.5,31.4 25.4,29.7 			"/>
			<path class="st0" d="M43.2,47.5c0,0,0-0.1,0-0.3c-0.3-1.2-0.6-2-0.7-2.4c-0.3-1-0.7-2-1.1-3c0,0,0-0.2-0.1-0.3
				C37.2,33.3,30.1,28.1,25,29.7c-0.6,0.3-1.3,0.6-1.9,1.1c0.1,0,0.3,0,0.4-0.2c5.1-1.6,12.4,3.8,16.2,12c0.6,1.1,1.1,2.4,1.4,3.4
				c0.1,0.5,0.1,0.9,0.3,1.5l0,0c0,0.1,0,0.2,0,0.3c0.2,1.2,0.2,2.6,0.1,3.7c0,0.5-0.2,0.9-0.2,1.5l1.7-0.4
				C43.3,51,43.3,49.3,43.2,47.5z"/>
			<path class="st5" d="M47.2,55.2c0.1,0.6-1.6,1.4-2.1,0.1l-4.9-17.7c-0.3-1.1,1.7-1.6,2-0.5L47.2,55.2z"/>
			<path class="st2" d="M60,24.8c0.9,0.9,2.4,1.9,1.4,3l0.4,0.9c1.1-0.8,0.3-1.9-0.1-2.6c-0.6-0.9-1.5-1.4-1.6-2.6
				C59.2,23.1,59.7,24.3,60,24.8z"/>
			<path class="st5" d="M67.9,66.8c-3.9-6.1-5.1-12.6-7-19.2c0.9,0.1,1.5,0.1,2.4,0.1c1.5,7.2,2.7,13.5,5.6,18.9
				C69.1,67.1,68.5,67.4,67.9,66.8z"/>
			<path class="st1" d="M57,61.2l-1.5,0.9c-0.5-5.5,2.9-11.7,9-10.5l0.3,0.5C58.8,52.4,57.4,61.2,57,61.2z"/>
			<path class="st2" d="M61.9,52.1c-5.1,0.4-6.1,6-6.1,10.2l0,0l-0.3-0.1c0-4.2,1.1-9.4,6.3-10.5L61.9,52.1z"/>
			<path class="st8" d="M68.7,66.9c0.3,0.8,0.3,1.3,0,1.5l0.3-0.2l0,0c0.4-0.3,0.4-0.9,0.2-1.6c-0.3-0.8-1.1-1.4-1.5-1.1l-0.5,0.3
				C67.2,66,68.1,65.6,68.7,66.9z"/>
			
				<linearGradient id="SVGID_2_" gradientUnits="userSpaceOnUse" x1="-21.2676" y1="33.2624" x2="-19.357" y2="36.5715" gradientTransform="matrix(1 0 0 -1 88.2278 102)">
				<stop  offset="0" style="stop-color:#706F6F"/>
				<stop  offset="0.88" style="stop-color:#FFFFFF"/>
				<stop  offset="1" style="stop-color:#FFFFFF"/>
			</linearGradient>
			<path class="st9" d="M68.8,66.8c-0.3-0.8-1.1-1.3-1.5-1c-0.4,0.1-0.6,0.9-0.3,1.6c0.3,0.8,1.1,1.3,1.5,1.1
				C69,68.3,69.1,67.7,68.8,66.8z"/>
			<path class="st0" d="M60.1,24.6c0.9,1.1,2.4,1.9,1.4,3l0.5,0.8c1-0.8,0.3-1.8-0.1-2.6c-0.8-0.9-1.5-1.4-1.6-2.6
				C59.2,23,59.8,24.5,60.1,24.6z"/>
			<path class="st1" d="M61.5,27.6c0.3,0.6,0.1,1.4-0.3,1.6c-0.6,0.3-1.4,0.1-1.6-0.3l-2.2-3.6c-0.3-0.6-0.1-1.4,0.3-1.6
				c0.6-0.3,1.4-0.1,1.6,0.3L61.5,27.6z"/>
			<path class="st0" d="M61.6,27.6c-0.4-0.9-3,0.4-2.4,1.5l0.1,0.3l2.4-1.5L61.6,27.6z"/>
			<path class="st2" d="M61.9,28.7c-0.3,0.4-1.1,1.1-1.6,1.1c-0.6,0-0.9-0.4-0.6-0.9c0.3-0.4,1-1.1,1.6-1.1
				C61.9,27.8,62.2,28.2,61.9,28.7z"/>
			<path class="st0" d="M78,63.6c-2.5-5.4-6.6-9.6-10.5-11.1c-1.8-0.8-3.6-0.9-5.1-0.4c-1.1,0.3-1.8,0.8-2.7,1.5
				c-3,2.7-2.7,9.3,0.1,15.7c2,4.4,4.8,8,7.7,10c2.4,1.8,4.9,2.5,7.3,2c0.6-0.3,1.5-0.9,1.9-1.2c2-1.3,3-3.8,3.2-6.6v-2
				C79.8,69,79,66.3,78,63.6z M72.3,78c-1.5,0.5-3.1,0.2-4.8-0.8c-2.7-1.3-5.1-4.2-6.7-7.8c-2.7-6-1.8-11.7,1.9-12.9
				c1.5-0.5,3.1-0.1,4.8,0.8c2.7,1.4,5.1,4.2,6.8,7.8C76.9,71.1,76,76.8,72.3,78z"/>
			<path class="st2" d="M76.5,64.5c-2.1-4.8-5.5-8.5-9-10.5C65.2,52.8,63,52.4,61,53c-4.9,1.5-6.1,9.1-2.5,17.1
				c2.1,4.8,5.5,8.5,9,10.5c2.2,1.2,4.5,1.7,6.5,1C78.9,80.1,79.9,72.3,76.5,64.5z M72.3,78c-1.5,0.5-3.1,0.2-4.8-0.8
				c-2.7-1.3-5.1-4.2-6.7-7.8c-2.7-6-1.8-11.7,1.9-12.9c1.5-0.5,3.1-0.1,4.8,0.8c2.7,1.4,5.1,4.2,6.8,7.8C76.9,71.1,76,76.8,72.3,78
				z"/>
			
				<linearGradient id="SVGID_3_" gradientUnits="userSpaceOnUse" x1="-16.053" y1="43.154" x2="-25.696" y2="26.4516" gradientTransform="matrix(1 0 0 -1 88.2278 102)">
				<stop  offset="3.208560e-02" style="stop-color:#706F6F"/>
				<stop  offset="0.8877" style="stop-color:#FFFFFF"/>
			</linearGradient>
			<path class="st10" d="M75,64.8c-1.8-4-4.6-7.2-7.6-8.8c-1.9-1.1-3.8-1.4-5.4-0.9c-4.2,1.4-5.1,7.8-2.1,14.4
				c1.8,4,4.6,7.2,7.6,8.8c2,1,3.8,1.4,5.4,0.9C76.9,78,78,71.6,75,64.8z M72.3,78c-1.5,0.5-3.1,0.2-4.8-0.8
				c-2.7-1.3-5.1-4.2-6.7-7.8c-2.7-6-1.8-11.7,1.9-12.9c1.5-0.5,3.1-0.1,4.8,0.8c2.7,1.4,5.1,4.2,6.8,7.8C76.9,71.1,76,76.8,72.3,78
				z"/>
			<path class="st7" d="M67.2,77.3l0.5-7.8l-1.1,7.4l-0.2-0.2l1.1-7.4l-1.8,6.9l-0.1-0.2l1.8-6.9l-2.6,6.5l-0.1-0.2l2.5-6.5L64,74.7
				l-0.1-0.1l3.3-5.9l-3.9,4.9l-0.1-0.2l3.9-5.1l-4.5,4.2l-0.1-0.2l4.6-4.2l-5.2,3.2l-0.1-0.2l5.3-3.3l-5.6,2.5l-0.1-0.1l5.9-2.2
				l-6.3,1L60.6,69l6.3-1h-6.8v-0.3h6.6l-6.9-1.1v-0.1v-0.2l6.9,1.1l-7.2-2.2V65v-0.1l7.1,2.1l-7.2-3.3v-0.1v-0.1l7.2,3.1l-7.2-4.2
				v-0.1l0,0l7,4.2l-7.2-4.7v-0.1l7,5l-6.9-5.9c0-0.1,0-0.1,0-0.1l6.8,5.7l-6.6-6.6c0.1-0.1,0.1-0.1,0.1-0.1l6.5,6.4L60,58.7
				c0-0.1,0.1-0.1,0.1-0.1l6.1,7l-5.7-7.6l0.1-0.1l5.7,7.7l-5.4-8l0.1-0.1l5.4,7.9l-5.1-8.1l0.1-0.1l4.8,8.2l-4.4-8.5
				c0.1-0.1,0.1-0.1,0.1-0.1l4.4,8.6l-3.9-8.9c0.1,0,0.1,0,0.1,0l3.8,8.7l-3.3-8.9c0.1,0,0.1,0,0.1,0l3.3,8.9L64,56.1
				c0.2,0,0.2,0,0.2,0l2.7,9l-2.1-8.9c0.1,0,0.1,0,0.1,0l2.1,9l-1.5-8.9c0.1,0.1,0.1,0.1,0.1,0.1l1.5,8.9l-0.9-8.7
				c0.1,0,0.1,0.1,0.1,0.1l0.9,8.7L67,57.2c0.3-0.1,0.3,0,0.3,0l0.3,8.6l0.4-8.1l0.1,0.1L67.8,66l1.2-7.8l0.2,0.1l-1.2,7.8l2-7.2
				l0.1,0.1l-1.9,7.4l2.6-6.6l0.1,0.1l-2.7,6.8l3.3-6l0.1,0.1l-3.3,6l4.1-5.1l0.2,0.1l-4.1,5.2l4.8-4.4l0.1,0.1l-4.8,4.4l5.4-3.3
				l0.1,0.1l-5.4,3.3l5.8-2.2l0.2,0.2l-5.8,2.3l6-1.5l0.1,0.1l-6.3,1.1h6.8l0.1,0.2h-6.7l6.9,1v0.2l-6.9-1l7.1,2.1v0.2l-7.1-2
				l7.1,3.1v0.2l-7.1-3.1l7.1,4v0.1l-6.9-4l6.8,5v0.2L69,68.6l6.6,5.5c0,0.1,0,0.1,0,0.1l-6.5-5.5l6.2,6.2c0,0.3,0,0.3,0,0.3l-6.2-6
				l5.9,6.8c0,0.1-0.2,0.1-0.2,0.1l-5.7-6.6l5.4,7.2l0,0l-5.4-7l4.9,7.5l-0.1,0.1L69,69.9l4.5,7.8l-0.2,0.2l-4.5-7.8l4.1,8
				c-0.2,0.1-0.2,0.1-0.2,0.1l-3.9-8.2l3.6,8.1c-0.1,0-0.1,0-0.1,0l-3.6-8.1l3,8.2c-0.1,0-0.1,0-0.1,0l-3.2-8.2l2.6,8.2
				c-0.1,0-0.1,0-0.1,0l-2.6-8.4l1.9,8.2C70,78,70,78,70,78l-2-8.4l1.4,8.2c-0.2,0-0.2,0-0.2,0l-1.5-8.2l0.9,8.1
				c-0.2-0.1-0.2-0.1-0.2-0.1l-0.9-8.2l0.1,8c-0.1,0-0.1-0.2-0.1-0.2l-0.2-8L67,76.8C67,77,67,77,67.2,77.3z"/>
			<path class="st5" d="M58.9,44.3c0.4-0.5,2.1,0.8,1.5,1.4L46.9,55.8l-2-1L58.9,44.3z"/>
			<path class="st2" d="M58,37.5l4.5-2.7c0.5-0.3,0.9-0.8,1.1-1.4c0.3-1.4-0.8-3-1.6-4.5c-0.1-0.1-0.3-0.3-0.3-0.4
				c-0.1-0.3-0.6-0.4-0.9-0.3c-0.3,0.1-0.4,0.6-0.3,0.9c0.1,0.1,0.3,0.4,0.3,0.6c0.8,1.1,1.6,2.7,1.5,3.4c0,0.1-0.1,0.3-0.3,0.4
				l-4.5,2.7c-0.3,0.1-0.5,0.6-0.3,0.9c0.1,0.3,0.3,0.3,0.6,0.3C57.9,37.7,58,37.7,58,37.5z"/>
			<path class="st8" d="M68.2,67.1c0.3,0.8,0.3,1.4,0,1.5l0.3-0.1l0,0c0.4-0.3,0.4-0.9,0.2-1.7c-0.3-0.8-1.1-1.3-1.5-1L66.7,66
				C66.7,66.3,67.6,65.9,68.2,67.1z"/>
			
				<linearGradient id="SVGID_4_" gradientUnits="userSpaceOnUse" x1="-21.6904" y1="32.9464" x2="-19.7797" y2="36.2559" gradientTransform="matrix(1 0 0 -1 88.2278 102)">
				<stop  offset="0" style="stop-color:#706F6F"/>
				<stop  offset="0.88" style="stop-color:#FFFFFF"/>
				<stop  offset="1" style="stop-color:#FFFFFF"/>
			</linearGradient>
			<path class="st11" d="M68.4,67.1c-0.3-0.8-1.1-1.3-1.5-1c-0.5,0.1-0.6,0.9-0.3,1.6c0.3,0.8,1.1,1.3,1.5,1.1
				C68.5,68.7,68.8,68,68.4,67.1z"/>
			<path class="st0" d="M72.3,56.7l0.3-0.3l1.5-0.9c-3.6-3.9-7.9-5.9-11.4-4.8c-0.8,0.3-1.4,0.6-2,1.1v0.6c0.1-0.1,0.5-0.1,0.8-0.3
				C64.5,51.2,68.7,53,72.3,56.7L72.3,56.7z"/>
			<path class="st2" d="M60.7,52.5c0.1-0.1,0.4-0.1,0.8-0.3c3.3-1,7.4,0.9,11,4.5l0,0l0.1-0.3c-3.6-3.9-7.9-5.9-11.4-4.8
				c-0.1,0.1-0.3,0.1-0.4,0.1V52.5z"/>
			<path class="st5" d="M67,67.7c-3.9-6.1-6.3-12-8.2-18.6c0.9,0,1.5-0.1,2.4-0.1c1.5,7.2,3.9,13,6.8,18.4
				C68.2,68.1,67.5,68.3,67,67.7z"/>
			<path class="st12" d="M58.5,49.1l0.3,1c0.5,0.8,2.6-0.4,2.6-1c0.6,0.1,2.4-0.8,2.1-1.5l-0.2-0.9L58.5,49.1z"/>
			<path class="st13" d="M61,48c-0.3,0.8-2.7,1.6-2.5,0.9c0.1-0.6,0.8-1.2,1.5-1.5c1-0.5,1.9-0.9,2.9-0.9C64.2,46.5,61.9,48,61,48z"
				/>
			<path class="st14" d="M41.7,37.1c0.2,0.3-1.1,0.9-1.2,0.3l-2.2-7.8l1.2-0.3L41.7,37.1z"/>
			<path class="st5" d="M61.5,47.3c0.1,0.6-1.6,1.4-2,0.4L57.9,42c-0.1-0.8,1.8-1.1,2-0.5L61.5,47.3z"/>
			<path class="st2" d="M59.7,41.4c0.1,0.4-1.4,1-1.5,0.4l-1.4-4.5l1.5-0.4L59.7,41.4z"/>
			<path class="st2" d="M29.2,44.6c1.3-0.9,3.3,2.5,1.9,3.3L30.9,48l-1.9-3.3L29.2,44.6z"/>
			<path class="st0" d="M28.6,45.5c0,0.9,0.6,2,1.4,2.4c0.8,0.5,1.3,0.1,1.3-0.8s-0.6-1.9-1.3-2.4C29.2,44.3,28.6,44.7,28.6,45.5z"
				/>
			<path class="st8" d="M45.1,59.1L30.9,48l0,0l0,0c-0.1,0.2-0.3,0.2-0.5,0.2L45,59.6L45.1,59.1z"/>
			
				<rect x="37.4" y="41.4" transform="matrix(0.4969 -0.8678 0.8678 0.4969 -23.6727 57.2302)" class="st8" width="0.3" height="15.3"/>
			<polygon class="st15" points="39,41.4 40.8,39.9 41.4,41.7 39.6,43.1 30.1,46.5 29.7,45.9 			"/>
			<polygon class="st5" points="41.4,41.7 39.6,43.1 30.1,46.5 29.7,45.9 39.1,41.7 40.9,40.4 			"/>
			<path class="st5" d="M44.4,53.7c-0.3,0.5-1,0.8-1.8,0.9c-0.6,0.1-1.4,0.1-1.8-0.3l-10.9-7.6c-0.4-0.3-0.3-0.9,0.2-0.8l11.4,7.2
				c0.3,0.1,0.8,0.1,1.2,0.1c0.8-0.1,1.5-0.6,1.8-1C44.8,52.4,44.8,53.3,44.4,53.7z"/>
			<path class="st8" d="M43.9,52.5c2.5-1.5,6.4,5.1,3.8,6.6l-0.8,0.3L43,53L43.9,52.5z"/>
			
				<linearGradient id="SVGID_5_" gradientUnits="userSpaceOnUse" x1="-45.5679" y1="41.7381" x2="-40.9749" y2="49.6935" gradientTransform="matrix(1 0 0 -1 88.2278 102)">
				<stop  offset="0" style="stop-color:#706F6F"/>
				<stop  offset="0.88" style="stop-color:#FFFFFF"/>
				<stop  offset="1" style="stop-color:#FFFFFF"/>
			</linearGradient>
			<path class="st16" d="M42.3,54.8c0,1.6,1.2,3.8,2.7,4.5c1.5,0.9,2.7,0.1,2.7-1.5S46.5,54,45,53.3C43.5,52.4,42.3,53.1,42.3,54.8z
				"/>
			
				<linearGradient id="SVGID_6_" gradientUnits="userSpaceOnUse" x1="-41.3629" y1="48.9832" x2="-45.1466" y2="42.4297" gradientTransform="matrix(1 0 0 -1 88.2278 102)">
				<stop  offset="0" style="stop-color:#706F6F"/>
				<stop  offset="0.88" style="stop-color:#FFFFFF"/>
				<stop  offset="1" style="stop-color:#FFFFFF"/>
			</linearGradient>
			<path class="st17" d="M42.7,55.1c0,1.4,1,3.1,2.2,3.8c1.4,0.8,2.2,0.1,2.2-1.4c0-1.4-1.1-3.1-2.2-3.8
				C43.8,53.1,42.7,53.6,42.7,55.1z"/>
			<path class="st8" d="M45.3,61.5c0,0.6-0.9,0.6-0.9,0v-4.4c0-0.6,0.9-0.6,0.9,0V61.5z"/>
			<path class="st8" d="M44.5,55.2c0.9-0.4,2.1,1.6,1.4,2.1l-0.3,0.1l-1.4-2.1L44.5,55.2z"/>
			
				<linearGradient id="SVGID_7_" gradientUnits="userSpaceOnUse" x1="-44.1949" y1="44.2908" x2="-42.6621" y2="46.9458" gradientTransform="matrix(1 0 0 -1 88.2278 102)">
				<stop  offset="0" style="stop-color:#706F6F"/>
				<stop  offset="0.88" style="stop-color:#FFFFFF"/>
				<stop  offset="1" style="stop-color:#FFFFFF"/>
			</linearGradient>
			<path class="st18" d="M43.9,55.8c0,0.6,0.3,1.4,0.9,1.5c0.4,0.3,0.9,0.1,0.9-0.5c0-0.6-0.3-1.4-0.9-1.5
				C44.2,55.1,43.9,55.4,43.9,55.8z"/>
			<polygon class="st0" points="43.8,60.2 46,61.7 42,64.1 39.6,62.7 			"/>
			<polygon class="st1" points="42,64.1 39.6,62.7 39.6,63.5 42,64.8 			"/>
			<polygon class="st2" points="42,64.1 46,61.7 46,62.4 42,64.8 			"/>
			<path class="st3" d="M42.6,63.8l2.7-1.5c0.3-0.1,0.3,0.3,0.1,0.4l-2.7,1.5C42.4,64.5,42.4,63.9,42.6,63.8z"/>
			<path class="st2" d="M29.7,45.9c0.3-0.1,0.9,0.8,0.4,0.9L30,47L29.7,45.9L29.7,45.9z"/>
			<path class="st19" d="M29.5,46.1c0,0.3,0.2,0.4,0.3,0.6c0.2,0.1,0.3,0.1,0.3-0.1c0-0.3-0.1-0.5-0.3-0.6
				C29.5,45.9,29.5,45.9,29.5,46.1z"/>
			<path class="st2" d="M44.4,30.7c0.1-0.3-0.2-0.1-0.2-0.3h-0.5c-0.6-0.4-1.5-1.1-2.5-1.6c-1.7-1.1-0.3-3.8-3.3-3.8
				c-1.3,0-3.3,1.1-4.2,2.4c0,0-0.2,0.9,0,1.2c0.3,1.1,0.5,1.5,1.8,1.4c1.1,0,2.7,0,3.2,0.3c3.3,1.9,4.2,2.1,5.4,1.4
				C44.2,31.7,44.6,31,44.4,30.7z"/>
			<path class="st0" d="M41.4,28.2c-1.7-1.1-0.3-3.8-3.3-3.8c-1.4,0-3.3,1.1-4.2,2.4c-0.8,0.9,0.3,1.9,2,2.1c1,0.1,2.5,0.6,3,0.9
				c3.3,1.9,4.2,2.1,5.4,1.4C45.3,30.3,43.3,29.4,41.4,28.2z"/>
			<path class="st12" d="M58.8,37.4l-1.6,0.9c-0.9,0.5-1.6-1-0.8-1.6l1.4-0.8C58.6,35.4,59.4,36.9,58.8,37.4z"/>
			<path class="st2" d="M41.7,36.5c0.9,1.1,1.5,2.7,2.7,1.8l0.9,0.6c-0.9,0.9-1.9,0-2.5-0.6c-0.8-0.8-1.1-1.6-2.2-2.1
				C40.2,35.3,41.4,35.9,41.7,36.5z"/>
			<path class="st0" d="M41.7,36.6c0.8,1.1,1.5,2.6,2.7,1.6l0.8,0.5c-0.9,0.9-1.8,0.1-2.4-0.5c-0.8-0.9-1-1.6-2.1-2.1
				C40.2,35.3,41.4,36.3,41.7,36.6z"/>
			<path class="st1" d="M44.4,38.4c0.5,0.4,1.2,0.4,1.6-0.1c0.5-0.5,0.5-1.2-0.1-1.6l-3.1-2.7c-0.4-0.4-1.2-0.4-1.7,0.1
				c-0.4,0.5-0.4,1.2,0.2,1.6L44.4,38.4z"/>
			<path class="st0" d="M44.2,38.4c-0.8-0.8,1.4-2.7,2.1-2l0.1,0.3l-2.1,1.9L44.2,38.4z"/>
			<path class="st2" d="M45.3,39c0.6-0.1,1.4-0.8,1.5-1.4s-0.1-1.1-0.8-0.9c-0.6,0.1-1.4,0.8-1.5,1.4C44.2,38.7,44.5,39,45.3,39z"/>
			<path class="st2" d="M53.1,40.4l3.6-1.9c0.3-0.1,0.4-0.6,0.3-0.9c-0.1-0.3-0.6-0.5-0.9-0.3l-3.8,2c-1.4,0.9-5.1-0.3-6.1-1.5
				c-0.3-0.3-0.8-0.3-0.9-0.1c-0.3,0.3-0.3,0.8-0.1,0.9c0.9,1,3.8,2.2,6,2.2C52,40.8,52.6,40.7,53.1,40.4z"/>
		</g>
	</g>
	<g>
		<path class="st5" d="M29.1,35.9c-0.3-0.2-0.5-0.4-0.6-0.8c-0.2-0.4-0.3-0.7-0.3-1c0-0.3,0.1-0.6,0.3-0.7c0.2-0.1,0.4-0.1,0.6,0
			c0.3,0.2,0.5,0.4,0.6,0.8c0.2,0.4,0.3,0.7,0.3,1c0,0.3-0.1,0.6-0.3,0.7S29.3,36.1,29.1,35.9L29.1,35.9z M29.1,33.9
			c-0.2-0.1-0.3-0.1-0.4,0c-0.1,0.1-0.2,0.2-0.2,0.4c0,0.2,0.1,0.4,0.2,0.6s0.2,0.4,0.4,0.5c0.2,0.1,0.3,0.1,0.4,0
			c0.1-0.1,0.2-0.2,0.2-0.4c0-0.2-0.1-0.4-0.2-0.6S29.3,34,29.1,33.9L29.1,33.9z"/>
		<path class="st5" d="M30.2,34.4c0-0.1,0-0.2,0.1-0.2s0.1,0.1,0.2,0.2l0.9,2l0-1.3c0-0.1,0-0.1,0.1-0.1c0,0,0.1,0,0.1,0
			c0.1,0,0.1,0.1,0.1,0.2c0,0.1,0.1,0.1,0.1,0.2l0,2c0,0.1,0,0.2-0.1,0.2c0,0,0,0-0.1,0c-0.1,0-0.1-0.1-0.1-0.2l-0.9-2l0,1.3
			c0,0.1,0,0.1-0.1,0.1c0,0-0.1,0-0.1,0c-0.1,0-0.1-0.1-0.1-0.2c0-0.1-0.1-0.1-0.1-0.2L30.2,34.4C30.2,34.4,30.2,34.4,30.2,34.4z"/>
		<path class="st20" d="M32.2,35.8c0,0-0.1-0.1-0.1-0.1c0-0.1-0.1-0.1-0.1-0.2c0-0.1,0-0.1,0.1-0.1c0,0,0.1,0,0.1,0l1.2,0.7
			c0,0,0.1,0.1,0.1,0.1c0,0.1,0.1,0.1,0.1,0.2s0,0.1-0.1,0.1c0,0-0.1,0-0.1,0L33,36.3l0,1c0,0.1,0,0.1-0.1,0.1c0,0-0.1,0-0.1,0
			c0,0-0.1-0.1-0.1-0.2c0-0.1-0.1-0.1-0.1-0.2l0-1C32.6,36,32.2,35.8,32.2,35.8z"/>
		<path class="st5" d="M34,38.9c0,0-0.1-0.1-0.1-0.1s-0.1-0.1-0.1-0.2l0-2c0-0.1,0-0.1,0.1-0.1c0,0,0.1,0,0.1,0c0,0,0.1,0.1,0.1,0.1
			c0,0.1,0.1,0.1,0.1,0.2l0,2c0,0.1,0,0.1-0.1,0.1C34.1,38.9,34,38.9,34,38.9L34,38.9z"/>
		<path class="st5" d="M29.4,36.5c0.2,0.1,0.3,0.2,0.4,0.5c0.1,0.2,0.2,0.4,0.2,0.6c0,0.2,0,0.3-0.1,0.4c0.1,0.2,0.2,0.5,0.2,0.7
			c0,0.2-0.1,0.3-0.2,0.4c-0.1,0.1-0.2,0.1-0.4,0l-0.9-0.6c-0.1,0-0.1-0.1-0.1-0.2c0-0.1-0.1-0.1-0.1-0.2l0-2c0-0.1,0-0.1,0.1-0.1
			c0,0,0.1,0,0.1,0L29.4,36.5L29.4,36.5z M28.7,37.1l0.6,0.4c0.1,0,0.1,0,0.1,0c0,0,0.1-0.1,0.1-0.1c0-0.1,0-0.1-0.1-0.2
			c0-0.1-0.1-0.1-0.1-0.2l-0.6-0.4L28.7,37.1z M29.4,38.5c0.1,0,0.1,0,0.1,0c0,0,0.1-0.1,0.1-0.1c0-0.1,0-0.1-0.1-0.2
			c0-0.1-0.1-0.1-0.1-0.2l-0.8-0.5l0,0.5L29.4,38.5C29.4,38.5,29.4,38.5,29.4,38.5z"/>
		<path class="st5" d="M30.4,39.6c-0.1,0-0.1-0.1-0.1-0.1c0-0.1-0.1-0.1-0.1-0.2l0-2c0-0.1,0-0.1,0.1-0.1c0,0,0.1,0,0.1,0
			c0.1,0,0.1,0.1,0.1,0.1c0,0.1,0.1,0.1,0.1,0.2l0,2c0,0.1,0,0.1-0.1,0.1C30.5,39.6,30.4,39.6,30.4,39.6L30.4,39.6z"/>
		<path class="st5" d="M30.8,38.6c0-0.3,0.1-0.6,0.3-0.7c0.2-0.1,0.4-0.1,0.6,0c0.3,0.2,0.5,0.5,0.7,0.9c0,0.1,0,0.1,0,0.2
			c0,0.1,0,0.1-0.1,0.1c0,0-0.1,0-0.1,0c-0.1,0-0.1-0.1-0.1-0.2c-0.1-0.3-0.2-0.4-0.4-0.5c-0.2-0.1-0.3-0.1-0.4,0
			c-0.1,0.1-0.2,0.2-0.2,0.4c0,0.2,0.1,0.4,0.2,0.6c0.1,0.2,0.2,0.4,0.4,0.5c0.2,0.1,0.3,0.1,0.4,0c0,0,0.1,0,0.1,0
			c0,0,0.1,0.1,0.1,0.1c0,0.1,0.1,0.1,0.1,0.2c0,0.1,0,0.1,0,0.2c-0.2,0.2-0.4,0.2-0.7,0c-0.3-0.2-0.5-0.4-0.6-0.8
			C30.9,39.3,30.8,38.9,30.8,38.6L30.8,38.6z"/>
		<path class="st21" d="M33.6,40.2L33.6,40.2C33.6,40.2,33.6,40.2,33.6,40.2C33.6,40.2,33.6,40.2,33.6,40.2"/>
		<path class="st20" d="M32.8,41c-0.1,0-0.1-0.1-0.1-0.1c0-0.1-0.1-0.1-0.1-0.2l0-2c0-0.1,0-0.1,0.1-0.1c0,0,0.1,0,0.1,0
			c0.1,0,0.1,0.1,0.1,0.1c0,0.1,0.1,0.1,0.1,0.2l0,2c0,0.1,0,0.1-0.1,0.1S32.8,41.1,32.8,41L32.8,41z"/>
		<path class="st21" d="M33.2,40.1L33.2,40.1C33.2,40.1,33.2,40.1,33.2,40.1C33.2,40.1,33.2,40.1,33.2,40.1"/>
		<path class="st22" d="M32.8,38.4c0,0-0.1-0.1-0.1-0.1s-0.1-0.1-0.1-0.2l0-0.3c0-0.1,0-0.1,0.1-0.1c0,0,0.1,0,0.1,0
			c0,0,0.1,0.1,0.1,0.1c0,0.1,0.1,0.1,0.1,0.2l0,0.3c0,0.1,0,0.1-0.1,0.1C32.9,38.4,32.8,38.4,32.8,38.4"/>
		<path class="st5" d="M34.1,40.8c-0.1,0-0.1-0.1-0.1-0.1c0-0.1-0.1-0.1-0.1-0.2c0-0.1,0-0.1,0.1-0.1s0.1,0,0.1,0l0.5,0.3
			c0-0.2-0.1-0.3-0.2-0.5c-0.1-0.1-0.2-0.3-0.3-0.3c-0.2-0.1-0.3-0.1-0.4,0c-0.1,0.1-0.2,0.2-0.2,0.4c0,0.2,0.1,0.4,0.2,0.6
			c0.1,0.2,0.2,0.4,0.4,0.5c0.1,0.1,0.3,0.1,0.4,0c0,0,0.1,0,0.1,0c0.1,0,0.1,0.1,0.1,0.2c0,0.1,0,0.1,0,0.2c0,0.1,0,0.1-0.1,0.1
			c-0.2,0.1-0.4,0.1-0.6-0.1c-0.3-0.2-0.5-0.4-0.6-0.8c-0.2-0.4-0.3-0.7-0.3-1c0-0.3,0.1-0.6,0.3-0.7c0.2-0.1,0.4-0.1,0.6,0
			c0.3,0.2,0.5,0.4,0.6,0.8s0.3,0.7,0.3,1c0,0.1,0,0.1-0.1,0.1s-0.1,0-0.1,0L34.1,40.8L34.1,40.8z"/>
	</g>
</g>
<path class="st2" d="M48.2,53.7l8.9-6.7c0,0-0.6-0.5-0.3-1.2l-8.9,6.7C47.6,53.3,48.2,53.7,48.2,53.7z"/>
<g>
	<g>
		<path class="st2" d="M57.1,41c-0.2,0-0.4,0-0.5-0.1l-3.8-2.1c-0.4-0.2-0.6-0.6-0.6-1s0.2-0.8,0.6-1l9.7-5.7c0.3-0.2,0.7-0.2,1.1,0
			l3.7,1.9c0.4,0.2,0.6,0.5,0.6,1s-0.2,0.8-0.5,1l-9.5,5.9C57.5,40.9,57.3,41,57.1,41z M62.6,31.4l-9.7,5.7
			c-0.2,0.1-0.3,0.3-0.3,0.6c0,0.2,0.1,0.4,0.3,0.5l3.8,2.1c0.2,0.1,0.4,0.1,0.6,0l9.5-5.9c0.2-0.1,0.3-0.3,0.3-0.6
			c0-0.2-0.1-0.4-0.4-0.5l-3.7-1.9C63,31.3,62.8,31.3,62.6,31.4L62.6,31.4z"/>
	</g>
	<g>
		<path class="st2" d="M57.1,43.7c-0.2,0-0.4,0-0.5-0.1l-3.8-2.1c-0.4-0.2-0.6-0.6-0.6-1s0.2-0.8,0.6-1l9.7-5.7
			c0.3-0.2,0.7-0.2,1.1,0l3.7,1.9c0.4,0.2,0.6,0.5,0.6,1s-0.2,0.8-0.5,1l-9.5,5.9C57.5,43.6,57.3,43.7,57.1,43.7z M62.6,34.2
			l-9.7,5.7c-0.2,0.1-0.3,0.3-0.3,0.6c0,0.2,0.1,0.4,0.3,0.5l3.8,2.1c0.2,0.1,0.4,0.1,0.6,0l9.5-5.9c0.2-0.1,0.3-0.3,0.3-0.6
			c0-0.2-0.1-0.4-0.4-0.5l-3.7-1.9C63,34.1,62.8,34.1,62.6,34.2L62.6,34.2z"/>
	</g>
	<g>
		<g>
			<rect x="67" y="34.5" class="st2" width="0.5" height="2.8"/>
		</g>
		<g>
			<path class="st2" d="M64.1,39.5c0,0-0.1,0-0.1,0l-5.1-3.3l0.3-0.4l4.7,3.1v-2.3h0.5v2.8c0,0.1,0,0.2-0.1,0.2
				C64.2,39.5,64.1,39.5,64.1,39.5z"/>
		</g>
		<g>
			<path class="st2" d="M60.9,41.5c0,0-0.1,0-0.1,0l-5.3-3.1l0.3-0.4l4.9,2.8v-2.3h0.5v2.8c0,0.1,0,0.2-0.1,0.2
				C61,41.5,61,41.5,60.9,41.5z"/>
		</g>
		<g>
			<rect x="57.5" y="40.5" class="st2" width="0.5" height="2.8"/>
		</g>
	</g>
	<g>
		<g>
			<rect x="61.9" y="31.2" class="st2" width="0.5" height="2.8"/>
		</g>
		<g>
			<rect x="58.7" y="33.2" class="st2" width="0.5" height="2.8"/>
		</g>
		<g>
			<rect x="55.6" y="35.2" class="st2" width="0.5" height="2.8"/>
		</g>
		<g>
			<rect x="52.4" y="37.2" class="st2" width="0.5" height="2.8"/>
		</g>
	</g>
	<g>
		<path class="st2" d="M54.3,42.3c0,0-0.1,0-0.1,0c-0.1,0-0.1-0.1-0.1-0.2l0.1-3l0.5,0l-0.1,2.5l10.3-6.9v-2.6h0.5v2.8
			c0,0.1,0,0.2-0.1,0.2l-10.8,7.2C54.4,42.3,54.4,42.3,54.3,42.3z"/>
	</g>
</g>
</svg>
