<?xml version="1.0" encoding="utf-8"?>
<!-- Generator: Adobe Illustrator 21.0.0, SVG Export Plug-In . SVG Version: 6.00 Build 0)  -->
<svg version="1.1" id="Capa_1" xmlns="http://www.w3.org/2000/svg" xmlns:xlink="http://www.w3.org/1999/xlink" x="0px" y="0px"
	 viewBox="0 0 100 100" style="enable-background:new 0 0 100 100;" xml:space="preserve">
<style type="text/css">
	.st0{fill:#5A5956;}
	.st1{fill:#C4C1B7;}
	.st2{fill:#7E7C7A;}
	.st3{fill:#FFFFFF;}
	.st4{fill:#EFEFEF;}
	.st5{fill:#F7F7F7;}
	.st6{fill:#CECECB;stroke:#CECECB;stroke-miterlimit:10;}
	.st7{fill:#FCFCFC;}
	.st8{fill:#CECECB;}
	.st9{fill:#00A29A;}
	.st10{fill:#B20023;}
</style>
<g>
	<g>
		<polyline class="st0" points="77.4,75.5 50,84.8 22.6,75.5 50,66.1 77.4,75.5 		"/>
		<polygon class="st1" points="22.6,75.5 22.6,77 50,86.3 50,84.8 		"/>
		<polyline class="st2" points="77.4,77 50,86.3 50,84.8 77.4,75.5 		"/>
	</g>
	<g>
		<g>
			<polygon class="st3" points="41,75.2 41,24 41.1,14.7 50.8,16.7 50.8,26 50.8,78.5 			"/>
			<polygon class="st4" points="52.6,17.7 60.9,22.9 60.9,26.3 60.9,76 52.6,78.7 52.6,26.2 			"/>
			<polygon class="st4" points="42.7,64.9 42.7,53.1 42.7,47.1 49.2,48.9 49.2,55.1 49.1,66.9 			"/>
		</g>
		<polygon class="st5" points="41,14.6 40.2,14.6 40.2,74.7 41,75.2 		"/>
		<polygon class="st2" points="47.2,18.3 45.3,29.1 41.1,32.9 50.8,35.3 50.8,19.1 		"/>
		<g>
			<path class="st3" d="M44.2,32.1c0.2-0.1,0.3-0.2,0.4-0.2c0.1,0,0,0.1-0.1,0.2c-0.2,0.1-0.3,0.2-0.4,0.2
				C44,32.3,44.1,32.2,44.2,32.1z"/>
			<g>
				<path class="st3" d="M45.9,30.7c0.2-0.1,0.3-0.2,0.4-0.2c0.1,0,0,0.1-0.1,0.2c-0.2,0.1-0.3,0.2-0.4,0.2
					C45.7,30.9,45.8,30.8,45.9,30.7z"/>
				<path class="st3" d="M46.4,30.8c0.2-0.1,0.3-0.2,0.4-0.2s0,0.1-0.1,0.2C46.6,31,46.4,31,46.3,31C46.3,31,46.3,30.9,46.4,30.8z"
					/>
				<path class="st3" d="M46.9,30.9c0.2-0.1,0.3-0.2,0.4-0.2s0,0.1-0.1,0.2c-0.1,0.1-0.3,0.2-0.4,0.2S46.8,31,46.9,30.9z"/>
				<path class="st3" d="M47.4,31c0.2-0.1,0.3-0.2,0.4-0.2c0.1,0,0,0.1-0.1,0.2c-0.1,0.1-0.3,0.2-0.4,0.2
					C47.3,31.2,47.3,31.1,47.4,31z"/>
				<path class="st3" d="M45.4,31.1c0.2-0.1,0.3-0.2,0.4-0.2c0.1,0,0,0.1-0.1,0.2c-0.2,0.1-0.3,0.2-0.4,0.2
					C45.2,31.4,45.2,31.3,45.4,31.1z"/>
				<path class="st3" d="M45.8,31.3c0.2-0.1,0.3-0.2,0.4-0.2c0.1,0,0,0.1-0.1,0.2c-0.2,0.1-0.3,0.2-0.4,0.2
					C45.7,31.5,45.7,31.3,45.8,31.3z"/>
				<path class="st3" d="M46.4,31.4c0.2-0.1,0.3-0.2,0.4-0.2c0.1,0,0,0.1-0.1,0.2c-0.2,0.1-0.3,0.2-0.4,0.2
					C46.2,31.5,46.2,31.5,46.4,31.4z"/>
				<path class="st3" d="M46.9,31.5c0.2-0.1,0.3-0.2,0.4-0.2c0.1,0,0,0.1-0.1,0.2c-0.2,0.1-0.3,0.2-0.4,0.2
					C46.7,31.7,46.7,31.6,46.9,31.5z"/>
				<path class="st3" d="M44.7,31.6c0.2-0.1,0.3-0.2,0.4-0.2c0.1,0,0,0.1-0.1,0.2c-0.2,0.1-0.3,0.2-0.4,0.2
					C44.6,31.8,44.6,31.8,44.7,31.6z"/>
				<path class="st3" d="M45.3,31.7c0.2-0.1,0.3-0.2,0.4-0.2s0,0.1-0.1,0.2c-0.1,0.1-0.3,0.2-0.4,0.2C45.1,32,45.1,31.8,45.3,31.7z"
					/>
				<path class="st3" d="M45.8,31.8c0.2-0.1,0.3-0.2,0.4-0.2c0.1,0,0,0.1-0.1,0.2c-0.2,0.1-0.3,0.2-0.4,0.2
					C45.6,32,45.7,31.9,45.8,31.8z"/>
				<path class="st3" d="M46.3,32c0.2-0.1,0.3-0.2,0.4-0.2s0,0.1-0.1,0.2c-0.1,0.1-0.3,0.2-0.4,0.2C46.2,32.1,46.2,32,46.3,32z"/>
				<path class="st3" d="M44.7,32.2c0.2-0.1,0.3-0.2,0.4-0.2c0.1,0,0,0.1-0.1,0.2c-0.2,0.1-0.3,0.2-0.4,0.2
					C44.5,32.4,44.6,32.3,44.7,32.2z"/>
				<path class="st3" d="M45.2,32.3c0.2-0.1,0.3-0.2,0.4-0.2c0.1,0,0,0.1-0.1,0.2c-0.2,0.1-0.3,0.2-0.4,0.2
					C45.1,32.5,45.1,32.4,45.2,32.3z"/>
				<path class="st3" d="M45.8,32.4c0.2-0.1,0.3-0.2,0.4-0.2c0.1,0,0,0.1-0.1,0.2c-0.1,0.1-0.3,0.2-0.4,0.2
					C45.6,32.6,45.6,32.5,45.8,32.4z"/>
			</g>
		</g>
		<polygon class="st3" points="50.3,31.1 52.4,31.6 50.3,33.9 48.1,33.4 		"/>
		<path class="st6" d="M50,32.4c0.3-0.2,0.6-0.3,0.8-0.3c0.2,0,0,0.2-0.2,0.5c-0.3,0.2-0.6,0.3-0.8,0.3C49.5,32.9,49.7,32.6,50,32.4
			z"/>
		<polygon class="st4" points="48.1,20.5 52.9,21.4 51.7,27.1 46.9,26.2 		"/>
		<polygon class="st7" points="41.1,32.9 45.3,29.1 47.2,18.3 50.8,19.1 50.8,28.9 50.8,26 50.8,16.7 41.1,14.7 41,24 41.1,32.9 		
			"/>
		<polygon class="st8" points="41.1,14.7 47.2,18.3 50.8,19.1 50.8,16.7 		"/>
		<g>
			<path d="M43.4,39.6c-0.2-0.1-0.4-0.3-0.6-0.5s-0.3-0.6-0.3-0.9s0.1-0.5,0.3-0.7c0.2-0.2,0.4-0.2,0.6-0.1c0.2,0.1,0.4,0.3,0.6,0.5
				c0.2,0.3,0.3,0.6,0.3,0.9s-0.1,0.5-0.3,0.7C43.8,39.6,43.6,39.6,43.4,39.6 M43.4,37.8c-0.1,0-0.3,0-0.4,0.1s-0.2,0.2-0.2,0.4
				s0.1,0.4,0.2,0.5s0.2,0.3,0.4,0.3c0.1,0,0.3,0,0.4-0.1c0.1-0.1,0.2-0.2,0.2-0.4s-0.1-0.4-0.2-0.5C43.7,37.9,43.5,37.8,43.4,37.8"
				/>
			<path d="M44.5,37.9c0-0.1,0-0.2,0.1-0.2c0.1,0,0.1,0,0.2,0.1l0.9,1.6v-1.2c0-0.1,0-0.1,0-0.1c0,0,0.1,0,0.1,0
				c0,0,0.1,0.1,0.1,0.1c0,0.1,0,0.1,0,0.2v1.8c0,0.1,0,0.2-0.1,0.2c0,0,0,0-0.1,0c-0.1,0-0.1-0.1-0.1-0.1l-0.9-1.6v1.2
				c0,0.1,0,0.1,0,0.1c0,0-0.1,0-0.1,0c0,0-0.1-0.1-0.1-0.1s0-0.1,0-0.2L44.5,37.9C44.5,37.9,44.5,37.9,44.5,37.9z"/>
			<path class="st9" d="M46.4,38.7c0,0-0.1,0-0.1-0.1s0-0.1,0-0.2c0-0.1,0-0.1,0-0.1s0.1,0,0.1,0l1.2,0.4c0,0,0.1,0,0.1,0.1
				c0,0.1,0,0.1,0,0.2c0,0.1,0,0.1,0,0.1c0,0-0.1,0-0.1,0L47.1,39v0.9c0,0.1,0,0.1,0,0.1c0,0-0.1,0-0.1,0S46.9,40,46.8,40
				s-0.1-0.1-0.1-0.2v-0.9C46.8,38.9,46.4,38.7,46.4,38.7z"/>
			<path d="M48.1,41.1c0,0-0.1,0-0.1-0.1c0-0.1,0-0.1,0-0.2V39c0-0.1,0-0.1,0-0.1c0,0,0.1,0,0.1,0c0,0,0.1,0,0.1,0.1s0,0.1,0,0.2
				v1.8c0,0.1,0,0.1,0,0.1C48.2,41.1,48.2,41.1,48.1,41.1"/>
			<path d="M43.6,40c0.1,0,0.3,0.2,0.4,0.3c0.1,0.2,0.2,0.3,0.2,0.5c0,0.1,0,0.3-0.1,0.3c0.1,0.2,0.2,0.4,0.2,0.6
				c0,0.2-0.1,0.3-0.2,0.4c-0.1,0.1-0.2,0.1-0.4,0.1l-0.9-0.3c0,0-0.1-0.1-0.1-0.1c0-0.1-0.1-0.1-0.1-0.2v-1.8c0-0.1,0-0.1,0.1-0.1
				c0,0,0.1,0,0.1,0L43.6,40L43.6,40z M43,40.6l0.6,0.2c0,0,0.1,0,0.1,0c0,0,0.1-0.1,0.1-0.1c0-0.1,0-0.1-0.1-0.2
				c0-0.1-0.1-0.1-0.1-0.1L43,40.2V40.6z M43.7,41.8c0,0,0.1,0,0.1,0c0,0,0.1-0.1,0.1-0.1c0-0.1,0-0.1-0.1-0.2
				c0-0.1-0.1-0.1-0.1-0.1L43,41.1v0.4L43.7,41.8C43.7,41.8,43.7,41.8,43.7,41.8z"/>
			<path d="M44.6,42.5c0,0-0.1,0-0.1-0.1c0-0.1,0-0.1,0-0.2v-1.8c0-0.1,0-0.1,0-0.1c0,0,0.1,0,0.1,0c0,0,0.1,0,0.1,0.1
				c0,0.1,0,0.1,0,0.2v1.8c0,0.1,0,0.1,0,0.1C44.7,42.5,44.7,42.5,44.6,42.5"/>
			<path d="M45,41.4c0-0.3,0.1-0.5,0.3-0.7c0.2-0.1,0.4-0.2,0.6-0.1c0.3,0.1,0.5,0.3,0.6,0.7c0,0.1,0,0.1,0,0.2c0,0.1,0,0.1-0.1,0.1
				c0,0-0.1,0-0.1,0c0,0-0.1-0.1-0.1-0.1c-0.1-0.2-0.2-0.3-0.4-0.4c-0.1-0.1-0.3,0-0.4,0c-0.1,0.1-0.2,0.2-0.2,0.4
				c0,0.2,0,0.4,0.1,0.5c0.1,0.2,0.2,0.3,0.3,0.3c0.2,0.1,0.3,0,0.4-0.1c0,0,0.1,0,0.1,0c0,0,0.1,0,0.1,0.1c0,0.1,0.1,0.1,0.1,0.2
				c0,0.1,0,0.1,0,0.1c-0.2,0.2-0.4,0.3-0.7,0.1c-0.2-0.1-0.4-0.3-0.6-0.6C45.1,42,45,41.7,45,41.4"/>
			<path d="M47.7,42.3L47.7,42.3C47.7,42.3,47.7,42.3,47.7,42.3C47.7,42.3,47.7,42.3,47.7,42.3"/>
			<path class="st9" d="M47,43.2c0,0-0.1,0-0.1-0.1s0-0.1,0-0.2v-1.8c0-0.1,0-0.1,0-0.1c0,0,0.1,0,0.1,0c0,0,0.1,0,0.1,0.1
				s0,0.1,0,0.2v1.8c0,0.1,0,0.1,0,0.1C47,43.2,47,43.2,47,43.2"/>
			<path d="M47.4,42.3L47.4,42.3C47.4,42.3,47.4,42.3,47.4,42.3C47.4,42.3,47.4,42.3,47.4,42.3"/>
			<path class="st10" d="M46.9,40.9c0,0-0.1,0-0.1-0.1s0-0.1,0-0.2v-0.2c0-0.1,0-0.1,0-0.1c0,0,0.1,0,0.1,0c0,0,0.1,0,0.1,0.1
				c0,0.1,0,0.1,0,0.2v0.2c0,0.1,0,0.1,0,0.1C47,40.9,47,40.9,46.9,40.9"/>
			<path d="M48.2,42.8c0,0-0.1,0-0.1-0.1c0-0.1,0-0.1,0-0.2c0-0.1,0-0.1,0-0.1c0,0,0.1,0,0.1,0l0.4,0.1c0-0.1-0.1-0.3-0.2-0.4
				c-0.1-0.1-0.2-0.2-0.3-0.2c-0.1,0-0.3,0-0.4,0.1c-0.1,0.1-0.2,0.2-0.2,0.4c0,0.2,0.1,0.4,0.2,0.5c0.1,0.2,0.2,0.3,0.4,0.3
				c0.1,0,0.2,0,0.3,0c0,0,0.1,0,0.1,0c0,0,0.1,0.1,0.1,0.1c0,0.1,0,0.1,0,0.2c0,0.1,0,0.1-0.1,0.1c-0.2,0.1-0.3,0.1-0.6,0.1
				c-0.2-0.1-0.4-0.3-0.6-0.5c-0.2-0.3-0.3-0.6-0.3-0.9s0.1-0.5,0.3-0.7c0.2-0.2,0.4-0.2,0.6-0.1c0.2,0.1,0.4,0.3,0.6,0.5
				c0.2,0.3,0.3,0.6,0.3,0.9c0,0.1,0,0.1,0,0.1c0,0-0.1,0-0.1,0L48.2,42.8L48.2,42.8z"/>
		</g>
		<polygon class="st4" points="45.3,29.1 47.2,18.3 41.1,14.7 		"/>
		<polygon class="st5" points="52.8,17.7 50.7,16.7 50.7,78.5 52.8,78.7 		"/>
	</g>
</g>
</svg>
